<svg width="51" height="52" viewBox="0 0 51 52" fill="none" xmlns="http://www.w3.org/2000/svg">
<g clip-path="url(#clip0_113_188)">
<path d="M48.541 39.596C45.8727 41.2651 32.05 48.0851 29.1071 49.9259C26.1645 51.7673 24.5297 51.7494 22.205 50.4158C19.8803 49.0822 5.17046 41.952 2.52077 40.4323C1.19631 39.6727 0.5 39.0316 0.5 38.426V32.3613C0.5 32.3613 19.6502 27.3584 22.7419 26.0276C25.8334 24.6966 26.9061 24.6485 29.537 25.805C32.1682 26.9616 47.8997 30.3677 50.5 31.5105C50.5 31.5105 50.4988 36.9271 50.4988 37.4894C50.4992 38.0889 49.8992 38.7466 48.541 39.596Z" fill="#912626"/>
<path d="M48.54 33.5672C45.8719 35.2355 32.0496 42.0558 29.1068 43.8966C26.1643 45.738 24.5295 45.72 22.2049 44.3864C19.8801 43.0537 5.17092 35.9224 2.52132 34.4034C-0.128289 32.8835 -0.183953 31.8375 2.41897 30.6145C5.02171 29.3911 19.6502 22.504 22.7422 21.173C25.8336 19.8424 26.9061 19.7939 29.5369 20.9508C32.168 22.1072 45.9078 28.6699 48.5078 29.8125C51.1084 30.9565 51.2082 31.8982 48.54 33.5672Z" fill="#C6302B"/>
<path d="M48.541 29.7831C45.8727 31.4521 32.05 38.2722 29.1071 40.1137C26.1645 41.9543 24.5297 41.9365 22.205 40.6029C19.8801 39.2699 5.17046 32.1391 2.52077 30.6193C1.19631 29.8597 0.5 29.2194 0.5 28.6137V22.5484C0.5 22.5484 19.6502 17.5457 22.7419 16.2147C25.8334 14.8838 26.9061 14.8356 29.537 15.992C32.1682 17.1487 47.8997 20.554 50.5 21.6971C50.5 21.6971 50.4988 27.1137 50.4988 27.6767C50.4992 28.276 49.8992 28.9337 48.541 29.7831Z" fill="#912626"/>
<path d="M48.54 23.7542C45.8719 25.423 32.0496 32.2428 29.1068 34.0843C26.1643 35.9251 24.5295 35.907 22.2049 34.5734C19.8801 33.2408 5.17092 26.1097 2.52132 24.5905C-0.128289 23.071 -0.183953 22.0248 2.41897 20.8013C5.02171 19.5786 19.6502 12.691 22.7422 11.3602C25.8336 10.0295 26.9061 9.98117 29.5369 11.1378C32.168 12.2942 45.9078 18.8565 48.5078 19.9995C51.1084 21.143 51.2082 22.0855 48.54 23.7542Z" fill="#C6302B"/>
<path d="M48.541 19.6061C45.8727 21.2751 32.05 28.0954 29.1071 29.9369C26.1645 31.7778 24.5297 31.7597 22.205 30.4261C19.8801 29.0931 5.17046 21.9621 2.52077 20.4428C1.19631 19.6829 0.5 19.0424 0.5 18.4372V12.3716C0.5 12.3716 19.6502 7.36919 22.7419 6.03836C25.8334 4.70731 26.9061 4.65926 29.537 5.8157C32.1682 6.97238 47.8997 10.3777 50.5 11.5208C50.5 11.5208 50.4988 16.9374 50.4988 17.5001C50.4992 18.099 49.8992 18.7566 48.541 19.6061Z" fill="#912626"/>
<path d="M48.54 13.5772C45.8719 15.2459 32.0496 22.0662 29.1068 23.9072C26.1643 25.748 24.5295 25.73 22.2049 24.3968C19.8803 23.0637 5.17092 15.9331 2.52132 14.4137C-0.128289 12.8942 -0.183953 11.8477 2.41897 10.6245C5.02171 9.40155 19.6502 2.51468 22.7422 1.18343C25.8336 -0.147583 26.9061 -0.195395 29.5369 0.961244C32.168 2.11788 45.9078 8.68014 48.5078 9.82319C51.1084 10.966 51.2082 11.9084 48.54 13.5772Z" fill="#C6302B"/>
<path d="M31.61 7.67747L27.3113 8.21306L26.3489 10.9917L24.7944 7.89096L19.8307 7.35561L23.5346 5.75282L22.4233 3.29236L25.891 4.9198L29.1601 3.63538L28.2766 6.17957L31.61 7.67747Z" fill="white"/>
<path d="M26.0921 21.1582L18.0692 17.1652L29.5655 15.0477L26.0921 21.1582Z" fill="white"/>
<path d="M14.969 9.22192C18.3626 9.22192 21.1136 10.5017 21.1136 12.0801C21.1136 13.6587 18.3626 14.9382 14.969 14.9382C11.5756 14.9382 8.82446 13.6587 8.82446 12.0801C8.82446 10.5017 11.5756 9.22192 14.969 9.22192Z" fill="white"/>
<path d="M36.6904 8.43701L43.4942 11.6635L36.6962 14.8868L36.6904 8.43701Z" fill="#621B1C"/>
<path d="M29.1631 12.01L36.6904 8.43701L36.6962 14.8868L35.9582 15.2333L29.1631 12.01Z" fill="#9A2928"/>
</g>
<defs>
<clipPath id="clip0_113_188">
<rect width="50" height="51.5625" fill="white" transform="translate(0.5)"/>
</clipPath>
</defs>
</svg>
